<mxfile host="app.diagrams.net" modified="2022-11-27T14:52:21.435Z" agent="5.0 (Windows NT 10.0; Win64; x64) AppleWebKit/537.36 (KHTML, like Gecko) Chrome/106.0.0.0 Safari/537.36 OPR/92.0.0.0" etag="CTaUoVYRdAIEBniZhg9Q" version="20.6.0" type="github">
  <diagram id="C5RBs43oDa-KdzZeNtuy" name="Page-1">
    <mxGraphModel dx="876" dy="386" grid="1" gridSize="10" guides="1" tooltips="1" connect="1" arrows="1" fold="1" page="1" pageScale="1" pageWidth="827" pageHeight="1169" math="0" shadow="0">
      <root>
        <mxCell id="WIyWlLk6GJQsqaUBKTNV-0" />
        <mxCell id="WIyWlLk6GJQsqaUBKTNV-1" parent="WIyWlLk6GJQsqaUBKTNV-0" />
        <mxCell id="PRKDy5d3mWUBLn4jBvoK-0" style="edgeStyle=none;rounded=0;orthogonalLoop=1;jettySize=auto;html=1;exitX=1;exitY=0.5;exitDx=0;exitDy=0;entryX=0;entryY=0.5;entryDx=0;entryDy=0;startArrow=none;startFill=0;endArrow=none;endFill=0;" edge="1" parent="WIyWlLk6GJQsqaUBKTNV-1" source="PRKDy5d3mWUBLn4jBvoK-3" target="PRKDy5d3mWUBLn4jBvoK-16">
          <mxGeometry relative="1" as="geometry" />
        </mxCell>
        <mxCell id="PRKDy5d3mWUBLn4jBvoK-1" style="edgeStyle=none;rounded=0;orthogonalLoop=1;jettySize=auto;html=1;exitX=1;exitY=0.5;exitDx=0;exitDy=0;entryX=0;entryY=0.5;entryDx=0;entryDy=0;startArrow=none;startFill=0;endArrow=none;endFill=0;" edge="1" parent="WIyWlLk6GJQsqaUBKTNV-1" source="PRKDy5d3mWUBLn4jBvoK-3" target="PRKDy5d3mWUBLn4jBvoK-8">
          <mxGeometry relative="1" as="geometry" />
        </mxCell>
        <mxCell id="PRKDy5d3mWUBLn4jBvoK-2" style="edgeStyle=none;rounded=0;orthogonalLoop=1;jettySize=auto;html=1;exitX=1;exitY=0.5;exitDx=0;exitDy=0;entryX=-0.008;entryY=0.617;entryDx=0;entryDy=0;entryPerimeter=0;startArrow=none;startFill=0;endArrow=none;endFill=0;" edge="1" parent="WIyWlLk6GJQsqaUBKTNV-1" source="PRKDy5d3mWUBLn4jBvoK-3" target="PRKDy5d3mWUBLn4jBvoK-20">
          <mxGeometry relative="1" as="geometry" />
        </mxCell>
        <mxCell id="PRKDy5d3mWUBLn4jBvoK-3" value="Stok Barang" style="rounded=0;whiteSpace=wrap;html=1;" vertex="1" parent="WIyWlLk6GJQsqaUBKTNV-1">
          <mxGeometry x="120" y="160" width="120" height="60" as="geometry" />
        </mxCell>
        <mxCell id="PRKDy5d3mWUBLn4jBvoK-4" value="Resource" style="text;html=1;align=center;verticalAlign=middle;resizable=0;points=[];autosize=1;strokeColor=none;fillColor=none;" vertex="1" parent="WIyWlLk6GJQsqaUBKTNV-1">
          <mxGeometry x="145" y="110" width="70" height="30" as="geometry" />
        </mxCell>
        <mxCell id="PRKDy5d3mWUBLn4jBvoK-5" style="edgeStyle=orthogonalEdgeStyle;rounded=0;orthogonalLoop=1;jettySize=auto;html=1;entryX=0;entryY=0.5;entryDx=0;entryDy=0;startArrow=ERzeroToMany;startFill=0;endArrow=ERmandOne;endFill=0;" edge="1" parent="WIyWlLk6GJQsqaUBKTNV-1" source="PRKDy5d3mWUBLn4jBvoK-8" target="PRKDy5d3mWUBLn4jBvoK-10">
          <mxGeometry relative="1" as="geometry" />
        </mxCell>
        <mxCell id="PRKDy5d3mWUBLn4jBvoK-6" style="edgeStyle=none;rounded=0;orthogonalLoop=1;jettySize=auto;html=1;exitX=1;exitY=0.75;exitDx=0;exitDy=0;entryX=0;entryY=0.5;entryDx=0;entryDy=0;startArrow=ERzeroToMany;startFill=0;endArrow=ERmandOne;endFill=0;" edge="1" parent="WIyWlLk6GJQsqaUBKTNV-1" source="PRKDy5d3mWUBLn4jBvoK-8" target="PRKDy5d3mWUBLn4jBvoK-12">
          <mxGeometry relative="1" as="geometry" />
        </mxCell>
        <mxCell id="PRKDy5d3mWUBLn4jBvoK-7" style="edgeStyle=none;rounded=0;orthogonalLoop=1;jettySize=auto;html=1;exitX=0.5;exitY=1;exitDx=0;exitDy=0;entryX=0.25;entryY=0;entryDx=0;entryDy=0;startArrow=ERoneToMany;startFill=0;endArrow=ERzeroToMany;endFill=0;" edge="1" parent="WIyWlLk6GJQsqaUBKTNV-1" source="PRKDy5d3mWUBLn4jBvoK-8" target="PRKDy5d3mWUBLn4jBvoK-26">
          <mxGeometry relative="1" as="geometry" />
        </mxCell>
        <mxCell id="PRKDy5d3mWUBLn4jBvoK-8" value="Pembelian Sembako" style="whiteSpace=wrap;html=1;" vertex="1" parent="WIyWlLk6GJQsqaUBKTNV-1">
          <mxGeometry x="330" y="160" width="120" height="60" as="geometry" />
        </mxCell>
        <mxCell id="PRKDy5d3mWUBLn4jBvoK-9" value="Event&lt;br&gt;" style="text;html=1;align=center;verticalAlign=middle;resizable=0;points=[];autosize=1;strokeColor=none;fillColor=none;" vertex="1" parent="WIyWlLk6GJQsqaUBKTNV-1">
          <mxGeometry x="365" y="110" width="50" height="30" as="geometry" />
        </mxCell>
        <mxCell id="PRKDy5d3mWUBLn4jBvoK-10" value="Karyawan" style="whiteSpace=wrap;html=1;" vertex="1" parent="WIyWlLk6GJQsqaUBKTNV-1">
          <mxGeometry x="560" y="160" width="120" height="60" as="geometry" />
        </mxCell>
        <mxCell id="PRKDy5d3mWUBLn4jBvoK-11" value="Agent" style="text;html=1;align=center;verticalAlign=middle;resizable=0;points=[];autosize=1;strokeColor=none;fillColor=none;" vertex="1" parent="WIyWlLk6GJQsqaUBKTNV-1">
          <mxGeometry x="595" y="110" width="50" height="30" as="geometry" />
        </mxCell>
        <mxCell id="PRKDy5d3mWUBLn4jBvoK-12" value="Petani" style="whiteSpace=wrap;html=1;" vertex="1" parent="WIyWlLk6GJQsqaUBKTNV-1">
          <mxGeometry x="560" y="280" width="120" height="60" as="geometry" />
        </mxCell>
        <mxCell id="PRKDy5d3mWUBLn4jBvoK-13" style="edgeStyle=none;rounded=0;orthogonalLoop=1;jettySize=auto;html=1;exitX=1;exitY=0.5;exitDx=0;exitDy=0;entryX=0;entryY=0.75;entryDx=0;entryDy=0;startArrow=ERzeroToMany;startFill=0;endArrow=ERmandOne;endFill=0;" edge="1" parent="WIyWlLk6GJQsqaUBKTNV-1" source="PRKDy5d3mWUBLn4jBvoK-16" target="PRKDy5d3mWUBLn4jBvoK-10">
          <mxGeometry relative="1" as="geometry" />
        </mxCell>
        <mxCell id="PRKDy5d3mWUBLn4jBvoK-14" style="edgeStyle=none;rounded=0;orthogonalLoop=1;jettySize=auto;html=1;exitX=1;exitY=0.75;exitDx=0;exitDy=0;entryX=-0.017;entryY=0.633;entryDx=0;entryDy=0;entryPerimeter=0;startArrow=ERzeroToMany;startFill=0;endArrow=ERmandOne;endFill=0;" edge="1" parent="WIyWlLk6GJQsqaUBKTNV-1" source="PRKDy5d3mWUBLn4jBvoK-16" target="PRKDy5d3mWUBLn4jBvoK-12">
          <mxGeometry relative="1" as="geometry" />
        </mxCell>
        <mxCell id="PRKDy5d3mWUBLn4jBvoK-15" style="edgeStyle=none;rounded=0;orthogonalLoop=1;jettySize=auto;html=1;exitX=0.75;exitY=1;exitDx=0;exitDy=0;entryX=0.861;entryY=-0.017;entryDx=0;entryDy=0;entryPerimeter=0;startArrow=ERoneToMany;startFill=0;endArrow=ERzeroToMany;endFill=0;" edge="1" parent="WIyWlLk6GJQsqaUBKTNV-1" source="PRKDy5d3mWUBLn4jBvoK-16" target="PRKDy5d3mWUBLn4jBvoK-26">
          <mxGeometry relative="1" as="geometry" />
        </mxCell>
        <mxCell id="PRKDy5d3mWUBLn4jBvoK-16" value="Pre order Pestisida dan pupuk" style="whiteSpace=wrap;html=1;" vertex="1" parent="WIyWlLk6GJQsqaUBKTNV-1">
          <mxGeometry x="330" y="270" width="120" height="60" as="geometry" />
        </mxCell>
        <mxCell id="PRKDy5d3mWUBLn4jBvoK-17" style="edgeStyle=none;rounded=0;orthogonalLoop=1;jettySize=auto;html=1;exitX=1;exitY=0.5;exitDx=0;exitDy=0;entryX=-0.033;entryY=0.633;entryDx=0;entryDy=0;entryPerimeter=0;startArrow=ERmandOne;startFill=0;endArrow=ERmandOne;endFill=0;" edge="1" parent="WIyWlLk6GJQsqaUBKTNV-1" source="PRKDy5d3mWUBLn4jBvoK-20" target="PRKDy5d3mWUBLn4jBvoK-10">
          <mxGeometry relative="1" as="geometry" />
        </mxCell>
        <mxCell id="PRKDy5d3mWUBLn4jBvoK-18" style="edgeStyle=none;rounded=0;orthogonalLoop=1;jettySize=auto;html=1;exitX=1;exitY=0.75;exitDx=0;exitDy=0;entryX=0.5;entryY=1;entryDx=0;entryDy=0;startArrow=ERmandOne;startFill=0;endArrow=ERmandOne;endFill=0;" edge="1" parent="WIyWlLk6GJQsqaUBKTNV-1" source="PRKDy5d3mWUBLn4jBvoK-20" target="PRKDy5d3mWUBLn4jBvoK-12">
          <mxGeometry relative="1" as="geometry" />
        </mxCell>
        <mxCell id="PRKDy5d3mWUBLn4jBvoK-19" style="edgeStyle=none;rounded=0;orthogonalLoop=1;jettySize=auto;html=1;exitX=0.5;exitY=1;exitDx=0;exitDy=0;entryX=0.5;entryY=0;entryDx=0;entryDy=0;startArrow=ERoneToMany;startFill=0;endArrow=ERzeroToMany;endFill=0;" edge="1" parent="WIyWlLk6GJQsqaUBKTNV-1" source="PRKDy5d3mWUBLn4jBvoK-20" target="PRKDy5d3mWUBLn4jBvoK-29">
          <mxGeometry relative="1" as="geometry" />
        </mxCell>
        <mxCell id="PRKDy5d3mWUBLn4jBvoK-20" value="Pembelian mini Traktor" style="whiteSpace=wrap;html=1;" vertex="1" parent="WIyWlLk6GJQsqaUBKTNV-1">
          <mxGeometry x="330" y="370" width="120" height="60" as="geometry" />
        </mxCell>
        <mxCell id="PRKDy5d3mWUBLn4jBvoK-21" style="edgeStyle=none;rounded=0;orthogonalLoop=1;jettySize=auto;html=1;exitX=1;exitY=0.5;exitDx=0;exitDy=0;entryX=0;entryY=0.5;entryDx=0;entryDy=0;startArrow=ERmandOne;startFill=0;endArrow=ERzeroToMany;endFill=0;" edge="1" parent="WIyWlLk6GJQsqaUBKTNV-1" source="PRKDy5d3mWUBLn4jBvoK-23" target="PRKDy5d3mWUBLn4jBvoK-26">
          <mxGeometry relative="1" as="geometry" />
        </mxCell>
        <mxCell id="PRKDy5d3mWUBLn4jBvoK-22" style="edgeStyle=none;rounded=0;orthogonalLoop=1;jettySize=auto;html=1;exitX=0.5;exitY=1;exitDx=0;exitDy=0;entryX=0;entryY=0.5;entryDx=0;entryDy=0;startArrow=ERmandOne;startFill=0;endArrow=ERzeroToMany;endFill=0;" edge="1" parent="WIyWlLk6GJQsqaUBKTNV-1" source="PRKDy5d3mWUBLn4jBvoK-23" target="PRKDy5d3mWUBLn4jBvoK-29">
          <mxGeometry relative="1" as="geometry" />
        </mxCell>
        <mxCell id="PRKDy5d3mWUBLn4jBvoK-23" value="Kas" style="rounded=0;whiteSpace=wrap;html=1;" vertex="1" parent="WIyWlLk6GJQsqaUBKTNV-1">
          <mxGeometry x="120" y="510" width="120" height="60" as="geometry" />
        </mxCell>
        <mxCell id="PRKDy5d3mWUBLn4jBvoK-24" style="edgeStyle=none;rounded=0;orthogonalLoop=1;jettySize=auto;html=1;exitX=1;exitY=0.5;exitDx=0;exitDy=0;entryX=0.158;entryY=1.05;entryDx=0;entryDy=0;entryPerimeter=0;startArrow=ERzeroToMany;startFill=0;endArrow=ERmandOne;endFill=0;" edge="1" parent="WIyWlLk6GJQsqaUBKTNV-1" source="PRKDy5d3mWUBLn4jBvoK-26" target="PRKDy5d3mWUBLn4jBvoK-12">
          <mxGeometry relative="1" as="geometry" />
        </mxCell>
        <mxCell id="PRKDy5d3mWUBLn4jBvoK-25" style="edgeStyle=none;rounded=0;orthogonalLoop=1;jettySize=auto;html=1;exitX=1;exitY=0.75;exitDx=0;exitDy=0;startArrow=ERzeroToMany;startFill=0;endArrow=ERmandOne;endFill=0;" edge="1" parent="WIyWlLk6GJQsqaUBKTNV-1" source="PRKDy5d3mWUBLn4jBvoK-26" target="PRKDy5d3mWUBLn4jBvoK-30">
          <mxGeometry relative="1" as="geometry" />
        </mxCell>
        <mxCell id="PRKDy5d3mWUBLn4jBvoK-26" value="Penerimaan kas langsung" style="whiteSpace=wrap;html=1;" vertex="1" parent="WIyWlLk6GJQsqaUBKTNV-1">
          <mxGeometry x="330" y="510" width="120" height="60" as="geometry" />
        </mxCell>
        <mxCell id="PRKDy5d3mWUBLn4jBvoK-27" style="edgeStyle=none;rounded=0;orthogonalLoop=1;jettySize=auto;html=1;exitX=1;exitY=0.5;exitDx=0;exitDy=0;entryX=0;entryY=0.5;entryDx=0;entryDy=0;startArrow=ERzeroToMany;startFill=0;endArrow=ERmandOne;endFill=0;" edge="1" parent="WIyWlLk6GJQsqaUBKTNV-1" source="PRKDy5d3mWUBLn4jBvoK-29" target="PRKDy5d3mWUBLn4jBvoK-30">
          <mxGeometry relative="1" as="geometry" />
        </mxCell>
        <mxCell id="PRKDy5d3mWUBLn4jBvoK-28" style="edgeStyle=none;rounded=0;orthogonalLoop=1;jettySize=auto;html=1;exitX=1;exitY=0;exitDx=0;exitDy=0;entryX=0.625;entryY=1.017;entryDx=0;entryDy=0;entryPerimeter=0;startArrow=ERzeroToMany;startFill=0;endArrow=ERmandOne;endFill=0;" edge="1" parent="WIyWlLk6GJQsqaUBKTNV-1" source="PRKDy5d3mWUBLn4jBvoK-29" target="PRKDy5d3mWUBLn4jBvoK-12">
          <mxGeometry relative="1" as="geometry" />
        </mxCell>
        <mxCell id="PRKDy5d3mWUBLn4jBvoK-29" value="kas cicilan mini traktor" style="whiteSpace=wrap;html=1;" vertex="1" parent="WIyWlLk6GJQsqaUBKTNV-1">
          <mxGeometry x="330" y="650" width="120" height="60" as="geometry" />
        </mxCell>
        <mxCell id="PRKDy5d3mWUBLn4jBvoK-30" value="Karyawan" style="whiteSpace=wrap;html=1;" vertex="1" parent="WIyWlLk6GJQsqaUBKTNV-1">
          <mxGeometry x="560" y="590" width="120" height="60" as="geometry" />
        </mxCell>
      </root>
    </mxGraphModel>
  </diagram>
</mxfile>
